<svg width="138" height="103" viewBox="0 0 138 103" fill="none" xmlns="http://www.w3.org/2000/svg">
<rect width="138" height="103" rx="8" fill="white"/>
<path d="M14 1H124.327V103H14V1Z" fill="white"/>
<path d="M21.9219 95.679H116.41V8.32617H21.9219V95.679Z" fill="#64A8F0"/>
<path d="M104.561 28.2663H101.286V16.3364H104.367V17.6705C104.751 16.8709 105.717 16.1569 106.966 16.0671C109.084 15.9773 110.527 17.1361 110.527 19.6289V28.2663H107.16V19.274C107.16 18.205 107.16 17.3156 106.388 17.1361C106.101 17.0463 105.615 17.1361 105.232 17.4013C104.751 17.846 104.556 18.3805 104.556 19.2699L104.561 28.2663ZM48.89 17.1361C48.1177 16.5118 47.1557 16.0671 45.9994 16.0671C44.8432 16.0671 43.9783 16.5118 43.1089 17.1361C41.7585 18.205 40.8935 20.1634 40.8935 22.3013C40.8935 24.529 41.7585 26.3977 43.1089 27.4666C43.9738 28.0909 44.8432 28.5356 45.9994 28.5356C47.1557 28.5356 48.1177 28.0909 48.89 27.4666C50.3331 26.3977 51.1053 24.529 51.1053 22.3013C51.1053 20.1634 50.3331 18.205 48.89 17.1361ZM47.6367 22.3013C47.6367 24.529 47.6367 26.3079 47.2527 27.1973C46.9659 27.6421 46.6746 27.9073 45.9994 27.9073C45.4213 27.9073 45.0374 27.6421 44.8432 27.1973C44.3622 26.3079 44.3622 24.5249 44.3622 22.3013C44.3622 20.1634 44.3622 18.2948 44.8432 17.4053C45.0374 16.9606 45.4213 16.6913 45.9994 16.6913C46.6746 16.6913 46.9615 16.9565 47.2527 17.4053C47.7338 18.2948 47.6367 20.1634 47.6367 22.3013ZM82.5043 32.8114V36.0183H81.8291C81.4451 34.6841 80.867 33.5254 79.3269 33.4357C78.3648 33.3459 77.4955 33.8804 77.3984 34.6841C77.3013 35.4838 77.5925 36.1978 79.3269 37.0873C81.5422 38.246 83.2766 38.7805 83.2766 41.1836C83.2766 43.7662 80.867 45.0106 78.8459 45.0106H74.9888V40.5553H75.664C76.1451 42.8727 76.9173 44.2966 78.7444 44.3823C79.9006 44.3823 80.7655 43.7581 80.7655 42.6034C80.7655 41.4447 79.9932 40.7348 78.1662 39.7515C76.1451 38.5928 74.8918 37.8829 74.8918 36.2794C74.8918 34.1415 76.529 32.8073 79.1283 32.8073H82.5043V32.8114ZM86.7408 28.2663V19.633C86.7408 17.1401 85.2977 15.9814 83.1751 16.0712C81.732 16.1609 80.8626 17.0504 80.4787 17.7644C79.9977 16.5159 78.9385 15.9855 77.3984 16.0712C76.1451 16.1609 75.183 16.8709 74.7991 17.6746V16.3405H71.8114V28.2745H75.0859V19.274C75.0859 18.3845 75.183 17.8501 75.7611 17.4053C76.1451 17.1401 76.5334 17.0504 76.8203 17.1401C77.5925 17.3197 77.5925 18.2091 77.5925 19.2781V28.2704H80.867V19.1842C80.867 18.3845 81.0612 17.8501 81.5422 17.4013C81.9262 17.1361 82.3145 17.0463 82.6014 17.1361C83.3737 17.3156 83.4663 18.205 83.4663 19.274V28.2663H86.7408ZM53.3207 13.8435H56.6923V28.2704H53.3207V13.8435ZM68.634 28.2663V13.8435H65.2624V17.2258C64.9756 16.6016 64.3004 16.1569 63.3339 16.1569C60.9244 16.1569 59.0003 18.4743 58.9032 22.0361C58.8061 24.4393 59.6755 28.4458 63.0427 28.4458C64.3931 28.4458 65.1609 27.7318 65.4522 27.1117V28.2704H68.634V28.2663ZM64.6843 17.3156C65.3595 18.205 65.3595 20.3429 65.3595 22.0361C65.3595 23.815 65.4566 26.1325 64.6843 27.1117C64.3975 27.4666 64.1062 27.6461 63.6252 27.6461C62.95 27.6461 62.5661 26.9321 62.3719 25.7775C62.2748 24.7085 62.2748 23.3744 62.2748 21.9505C62.2748 19.5473 62.469 16.8749 63.7179 16.8749C64.2033 16.8709 64.3975 17.0504 64.6843 17.3156ZM96.7585 16.6913C97.6234 17.1361 98.2015 17.8501 98.2015 19.4535V28.2704H95.0241V26.9362C94.6402 27.9154 93.5811 28.5397 92.1336 28.5397C90.9774 28.5397 88.9562 28.0052 88.9562 25.2471C88.9562 22.6645 90.7876 22.13 92.8088 21.3303C94.6402 20.6204 94.83 20.5306 94.83 19.8166V17.8582C94.83 17.0585 94.3489 16.6995 93.3869 16.6995C93.003 16.7893 92.3278 16.9647 92.3278 17.4135C92.2307 17.948 92.9059 17.948 93.003 18.7477C93.1 19.9961 92.0409 20.4409 91.0789 20.3511C90.4037 20.3511 89.6358 19.9961 89.5387 19.0169C89.4416 17.4135 91.3701 16.0793 94.0665 16.0793C95.3154 16.0671 96.0833 16.3364 96.7585 16.6913ZM94.83 21.1426L93.7708 21.7669C92.7117 22.3911 92.5175 23.1908 92.4204 24.0843C92.3233 24.7983 92.3233 25.4185 92.4204 26.4874C92.5175 27.4666 93.1927 27.6461 93.7708 27.4666C94.446 27.2014 94.83 26.0427 94.83 24.7942V21.1426ZM49.0798 33.3459C49.9447 33.8804 50.4301 34.5046 50.4301 36.104V45.0106H47.3498V43.6765C46.9659 44.5659 45.9068 45.1901 44.4593 45.1901C43.206 45.1901 41.2819 44.7454 41.2819 41.9833C41.2819 39.4006 43.1133 38.8661 45.0374 38.0665C46.9615 37.2668 47.1557 37.177 47.1557 36.5528V34.5944C47.1557 33.7049 46.6746 33.3459 45.7126 33.4357C45.3287 33.4357 44.6535 33.6152 44.6535 34.0599C44.5564 34.6841 45.2316 34.6841 45.3287 35.4838C45.4257 36.6425 44.3666 37.0873 43.4001 37.0873C42.7249 36.9975 41.9571 36.6425 41.86 35.6633C41.7629 34.1497 43.6914 32.8155 46.3878 32.8155C47.6367 32.8114 48.4046 32.9869 49.0798 33.3459ZM47.1557 37.7972L46.0965 38.4214C45.0374 39.0457 44.8432 39.8453 44.7461 40.7348C44.649 41.4488 44.649 42.1587 44.7461 43.1379C44.7461 44.2069 45.4213 44.3823 45.9994 44.1171C46.7717 43.8519 47.1557 42.7829 47.1557 41.4447V37.7972ZM72.3895 36.3733C72.3895 33.8804 70.9465 32.6319 68.8282 32.8114C67.7691 32.9012 66.9041 33.3459 66.4187 33.9701V30.4981H63.1442V38.6907C63.1442 41.7181 60.8317 44.5659 58.5193 44.4761C56.882 44.4761 56.4981 43.3174 56.3039 42.073C56.0171 40.2901 56.0171 38.246 56.2068 36.0183C56.401 34.5944 56.785 33.4357 57.9412 33.4357C58.8061 33.4357 58.9032 33.9701 58.5193 34.3251C58.1309 34.7698 57.5572 35.2145 57.8441 36.1937C58.1309 37.2627 59.9624 37.4381 60.8273 36.6385C61.5025 35.9245 61.4054 34.7698 60.9244 34.0558C60.3463 33.1664 59.3843 32.8073 57.9412 32.8073C56.1098 32.8073 52.6455 34.321 52.6455 39.1313C52.6455 44.2966 56.2068 45.1861 58.2324 45.1861C60.5449 45.1861 62.5661 43.3174 63.1442 41.8037V45.0106H66.4187V36.0142C66.4187 35.1248 66.6128 34.5903 67.0939 34.1456C67.4778 33.8804 67.9588 33.7906 68.2501 33.8804C69.0224 34.0599 69.0224 34.9493 69.0224 36.0183V45.0106H72.394L72.3895 36.3733ZM38.6782 13.5742V18.6497H38.003C37.4249 16.1569 36.1715 14.2882 34.4416 14.1985C33.2854 14.1087 32.6102 14.7329 32.0321 15.6224C31.454 16.6913 31.1671 18.9149 31.1671 21.5873C31.1671 24.0802 31.2642 25.9489 31.5511 27.2871C31.7452 27.9113 32.2263 28.8905 33.4752 28.8905C34.1504 28.8905 34.6314 28.711 34.9182 28.3561C35.3993 27.8216 35.4964 26.7526 35.4964 26.0427V23.6396C35.4964 22.7501 35.2095 22.2157 34.7241 21.9464C34.3401 21.7669 33.762 21.7669 33.4708 21.6812V21.0569H38.8635V33.7906H38.1883C37.9015 32.8114 37.7073 32.0974 37.2263 31.2977C36.7452 30.4981 35.8759 29.6045 34.4328 29.6045C32.8926 29.5148 31.7364 30.4042 31.7364 31.7425C31.7364 33.5254 32.8926 33.9701 35.0109 35.035C37.0321 36.104 39.6358 36.9934 39.6358 40.1105C39.6358 43.1379 36.8423 45.0065 33.6649 45.0065H28.5678V38.8661H29.243C30.108 43.4969 32.2307 44.2966 33.6738 44.2966C35.5052 44.2966 36.3701 43.2277 36.3701 41.714C36.273 39.7556 34.83 39.0416 32.8088 38.0624C29.9182 36.5487 28.5723 35.8347 28.5723 33.3418C28.6693 31.2039 30.5008 29.8697 32.5219 29.3353C28.2854 28.8905 27.0321 25.3287 27.1292 21.4976C27.1292 17.6705 29.5387 13.5742 34.2563 13.5742H38.6782Z" fill="white"/>
</svg>
